# xmcd
#
# Track frame offsets:
#  150
#  20845
#  39065
#  50206
#  63366
#  88419
#  106740
#  126362
#  148101
#  169782
#  188399
#  199487
#  214907
#  233455
#  255696
#  274755
#
# Disc length: 3852 seconds
#
# Revision: 0
# Processed by: cddbd v1.4PL0 Copyright (c) Steve Scherf et al.
# Submitted via: AltoMP3_Maker 3.0
#
DISCID=eb0f0a10
DTITLE=John Fogerty - Back On The Road Again
DYEAR=1900
DGENRE=
TTITLE0=Born On The Bayou
TTITLE1=Green River
TTITLE2=Bring It Down
TTITLE3=Who'll Stop The Rain
TTITLE4=The Midnight Special
TTITLE5=A Hundred And Ten In The Shade
TTITLE6=Before You Acuse Me
TTITLE7=The Old Man Down The Road
TTITLE8=Blueboy
TTITLE9=Walking In A Hurricane
TTITLE10=Bad Moon Rising
TTITLE11=Fortunate Son
TTITLE12=Proud Mary
TTITLE13=Born On The Bayou (With Booker T. And The MGS)
TTITLE14=Fortunate Son (With Booker T. And The MGS)
TTITLE15=In The Midnight Hour
EXTD=
EXTT0=
EXTT1=
EXTT2=
EXTT3=
EXTT4=
EXTT5=
EXTT6=
EXTT7=
EXTT8=
EXTT9=
EXTT10=
EXTT11=
EXTT12=
EXTT13=
EXTT14=
EXTT15=
PLAYORDER=
